<svg xmlns="http://www.w3.org/2000/svg" xmlns:xlink="http://www.w3.org/1999/xlink" width="500" zoomAndPan="magnify" viewBox="0 0 375 225" height="300" preserveAspectRatio="xMidYMid meet" version="1.0"><defs><g/><clipPath id="5879b2ae5d"><path d="M 1.5 16.605469 L 122 16.605469 L 122 170.355469 L 1.5 170.355469 Z M 1.5 16.605469 " clip-rule="nonzero"/></clipPath><clipPath id="d8775867aa"><path d="M 93 111 L 156 111 L 156 170.355469 L 93 170.355469 Z M 93 111 " clip-rule="nonzero"/></clipPath></defs><g clip-path="url(#5879b2ae5d)"><path fill="#000000" d="M 66.695312 41.105469 C 69.945312 41.117188 73.199219 41.332031 76.34375 42.277344 C 88.601562 45.964844 95.769531 54.21875 97.054688 66.929688 C 98.21875 78.460938 94.027344 87.925781 84.152344 94.421875 C 78.378906 98.21875 71.839844 99.113281 65.09375 98.992188 C 62.445312 98.945312 62.472656 99.003906 62.191406 101.675781 C 61.03125 112.636719 59.835938 123.585938 58.675781 134.546875 C 58.554688 135.6875 58.414062 136.773438 59.238281 137.882812 C 67.292969 148.683594 75.3125 159.507812 83.316406 170.339844 L 114.785156 170.339844 C 113.496094 168.59375 112.210938 166.851562 110.921875 165.109375 C 100.398438 150.855469 89.886719 136.597656 79.324219 122.375 C 78.3125 121.015625 78.472656 120.722656 80.128906 120.378906 C 89.871094 118.347656 98.738281 114.386719 105.859375 107.277344 C 120.074219 93.082031 123.96875 75.742188 119.585938 56.644531 C 114.082031 32.632812 95.035156 17.910156 70.992188 17.207031 C 50.046875 16.601562 29.074219 17.035156 8.113281 16.964844 C 6.75 16.960938 6.296875 17.484375 6.1875 18.757812 C 5.984375 21.160156 5.648438 23.546875 5.386719 25.945312 C 4.1875 36.832031 3.007812 47.726562 1.765625 58.605469 C 1.621094 59.867188 1.851562 60.835938 2.613281 61.855469 C 6.367188 66.859375 10.042969 71.914062 13.753906 76.945312 C 16.570312 80.753906 19.402344 84.550781 22.226562 88.351562 C 22.425781 88.316406 22.625 88.28125 22.820312 88.25 C 23.050781 85.871094 23.261719 83.484375 23.519531 81.109375 C 24.886719 68.53125 26.320312 55.964844 27.570312 43.378906 C 27.761719 41.4375 28.414062 41.054688 30.167969 41.0625 C 42.34375 41.121094 54.523438 41.066406 66.695312 41.105469 Z M 66.695312 41.105469 " fill-opacity="1" fill-rule="nonzero"/></g><g clip-path="url(#d8775867aa)"><path fill="#000000" d="M 125.859375 170.339844 L 155.902344 170.339844 C 149.238281 160.628906 142.070312 150.207031 135.617188 140.933594 C 135.617188 140.933594 135.613281 140.929688 135.613281 140.925781 C 128.667969 131.53125 121.714844 122.140625 114.824219 112.714844 C 113.949219 111.519531 113.433594 111.40625 112.34375 112.496094 C 107.148438 117.726562 101.089844 121.722656 94.316406 124.578125 C 92.875 125.183594 92.753906 125.652344 93.6875 126.910156 C 104.441406 141.367188 115.15625 155.847656 125.859375 170.339844 Z M 125.859375 170.339844 " fill-opacity="1" fill-rule="nonzero"/></g><path fill="#000000" d="M 67.871094 90.710938 C 75.777344 90.464844 83.890625 87.226562 87.578125 77.988281 C 88.003906 76.917969 87.847656 76.074219 87.121094 75.121094 C 85.199219 72.59375 83.410156 69.960938 81.570312 67.367188 C 80.910156 66.101562 79.707031 65.1875 79.125 63.914062 C 77.496094 60.324219 75.113281 57.335938 72.222656 54.714844 C 71.152344 53.328125 70.042969 51.976562 69.03125 50.550781 C 68.40625 49.664062 67.691406 49.324219 66.589844 49.328125 C 56.828125 49.371094 47.066406 49.371094 37.304688 49.328125 C 36.113281 49.324219 35.585938 49.589844 35.460938 50.898438 C 34.980469 55.828125 34.347656 60.742188 33.8125 65.667969 C 32.691406 75.972656 31.644531 86.285156 30.441406 96.578125 C 30.257812 98.148438 30.554688 99.316406 31.460938 100.53125 C 36.058594 106.679688 40.601562 112.867188 45.171875 119.03125 C 47.046875 121.558594 48.9375 124.074219 51.179688 127.070312 C 52.992188 110.152344 54.742188 93.820312 56.488281 77.492188 C 57.488281 78.015625 58.023438 78.632812 58.511719 79.289062 C 61.03125 82.679688 63.539062 86.082031 66.054688 89.484375 C 66.519531 90.105469 66.890625 90.746094 67.871094 90.710938 Z M 67.871094 90.710938 " fill-opacity="1" fill-rule="nonzero"/><g fill="#000000" fill-opacity="1"><g transform="translate(156.183656, 169.884014)"><g><path d="M 20.21875 -0.386719 L 10.433594 -25.566406 C 10.335938 -25.824219 9.886719 -25.824219 9.789062 -25.566406 L 0.03125 -0.386719 C -0.0625 -0.191406 0.0625 0 0.355469 0 L 4.765625 0 C 4.894531 0 5.054688 -0.0625 5.085938 -0.191406 L 10.109375 -14.554688 L 15.199219 -0.191406 C 15.230469 -0.0625 15.390625 0 15.488281 0 L 19.929688 0 C 20.15625 0 20.316406 -0.191406 20.21875 -0.386719 Z M 20.21875 -0.386719 "/></g></g></g><g fill="#000000" fill-opacity="1"><g transform="translate(177.433813, 169.884014)"><g><path d="M 4.925781 -14.585938 L 4.925781 -25.46875 C 4.925781 -25.597656 4.796875 -25.757812 4.570312 -25.757812 L 0.355469 -25.757812 C 0.160156 -25.757812 0 -25.597656 0 -25.46875 L 0 -14.585938 Z M 19.253906 -25.757812 L 15.035156 -25.757812 C 14.84375 -25.757812 14.683594 -25.597656 14.683594 -25.46875 L 14.683594 -9.628906 L 4.925781 -9.628906 L 4.925781 -9.660156 L 0 -9.660156 L 0 -0.289062 C 0 -0.160156 0.160156 0 0.355469 0 L 4.570312 0 C 4.796875 0 4.925781 -0.160156 4.925781 -0.289062 L 4.925781 -4.828125 L 14.683594 -4.828125 L 14.683594 -0.289062 C 14.683594 -0.160156 14.84375 0 15.035156 0 L 19.253906 0 C 19.480469 0 19.609375 -0.160156 19.609375 -0.289062 L 19.609375 -25.46875 C 19.609375 -25.597656 19.480469 -25.757812 19.253906 -25.757812 Z M 19.253906 -25.757812 "/></g></g></g><g fill="#000000" fill-opacity="1"><g transform="translate(198.040022, 169.884014)"><g><path d="M 23.054688 -6.214844 L 27.949219 -6.214844 L 27.949219 -25.46875 C 27.949219 -25.597656 27.820312 -25.757812 27.59375 -25.757812 L 23.34375 -25.757812 C 23.214844 -25.757812 23.054688 -25.660156 22.988281 -25.566406 L 14.199219 -6.695312 L 4.957031 -25.566406 C 4.925781 -25.660156 4.734375 -25.757812 4.636719 -25.757812 L 0.320312 -25.757812 C 0.0976562 -25.757812 0 -25.597656 0 -25.46875 L 0 -0.289062 C 0 -0.160156 0.0976562 0 0.320312 0 L 4.570312 0 C 4.765625 0 4.925781 -0.160156 4.925781 -0.289062 L 4.925781 -14.746094 L 11.914062 -1.222656 C 11.945312 -1.125 12.140625 -1.03125 12.234375 -1.03125 L 16.195312 -1.03125 C 16.292969 -1.03125 16.453125 -1.125 16.484375 -1.222656 L 23.054688 -14.390625 Z M 23.054688 -6.214844 "/></g></g></g><g fill="#000000" fill-opacity="1"><g transform="translate(227.403874, 169.884014)"><g><path d="M 12.234375 -4.796875 L 4.925781 -4.796875 L 4.925781 -10.59375 L 15.035156 -10.59375 C 15.230469 -10.59375 15.390625 -10.753906 15.390625 -10.882812 L 15.390625 -14.972656 C 15.390625 -15.132812 15.230469 -15.261719 15.035156 -15.261719 L 4.925781 -15.261719 L 4.925781 -21.089844 L 12.234375 -21.089844 L 12.234375 -25.757812 L 0.355469 -25.757812 C 0.160156 -25.757812 0 -25.597656 0 -25.46875 L 0 -0.289062 C 0 -0.160156 0.160156 0 0.355469 0 L 12.234375 0 Z M 12.234375 -4.796875 "/></g></g></g><g fill="#000000" fill-opacity="1"><g transform="translate(243.566873, 169.884014)"><g><path d="M 4.570312 -25.757812 L 0.355469 -25.757812 C 0.160156 -25.757812 0 -25.597656 0 -25.46875 L 0 -15.359375 L 4.925781 -15.359375 L 4.925781 -21.058594 C 10.527344 -21.347656 14.683594 -18.996094 14.683594 -12.878906 C 14.683594 -4.925781 8.050781 -4.605469 4.925781 -4.734375 L 4.925781 -10.398438 L 0 -10.398438 L 0 -0.289062 C 0 -0.160156 0.160156 0 0.355469 0 L 4.570312 0 C 10.980469 0 19.640625 -1.867188 19.640625 -12.878906 C 19.640625 -24.308594 10.851562 -25.757812 4.570312 -25.757812 Z M 4.570312 -25.757812 "/></g></g></g><g fill="#000000" fill-opacity="1"><g transform="translate(264.205276, 169.884014)"><g/></g></g><g fill="#000000" fill-opacity="1"><g transform="translate(272.254582, 169.884014)"><g><path d="M 17.582031 -0.417969 C 15.96875 -3.992188 14.230469 -7.535156 12.621094 -11.171875 C 15.199219 -12.105469 17.355469 -14.167969 17.355469 -18.09375 C 17.355469 -25.695312 10.109375 -25.757812 8.660156 -25.757812 L 0.320312 -25.757812 C 0.160156 -25.757812 0 -25.597656 0 -25.46875 L 0 -21.089844 L 8.660156 -21.089844 C 9.433594 -21.089844 12.460938 -20.929688 12.460938 -18.09375 C 12.460938 -15.261719 9.722656 -15.132812 8.660156 -15.132812 L 0 -15.132812 L 0 -0.289062 C 0 -0.160156 0.160156 0 0.320312 0 L 4.539062 0 C 4.734375 0 4.894531 -0.160156 4.894531 -0.289062 L 4.894531 -10.398438 L 7.664062 -10.398438 L 12.363281 -0.191406 C 12.394531 -0.0976562 12.589844 0 12.6875 0 L 17.289062 0 C 17.546875 0 17.675781 -0.191406 17.582031 -0.417969 Z M 17.582031 -0.417969 "/></g></g></g><g fill="#000000" fill-opacity="1"><g transform="translate(290.767976, 169.884014)"><g><path d="M 20.21875 -0.386719 L 10.433594 -25.566406 C 10.335938 -25.824219 9.886719 -25.824219 9.789062 -25.566406 L 0.03125 -0.386719 C -0.0625 -0.191406 0.0625 0 0.355469 0 L 4.765625 0 C 4.894531 0 5.054688 -0.0625 5.085938 -0.191406 L 10.109375 -14.554688 L 15.199219 -0.191406 C 15.230469 -0.0625 15.390625 0 15.488281 0 L 19.929688 0 C 20.15625 0 20.316406 -0.191406 20.21875 -0.386719 Z M 20.21875 -0.386719 "/></g></g></g><g fill="#000000" fill-opacity="1"><g transform="translate(312.018133, 169.884014)"><g><path d="M 14.8125 -12.816406 C 14.8125 -14.167969 13.75 -15.261719 12.394531 -15.261719 C 11.042969 -15.261719 9.980469 -14.167969 9.980469 -12.816406 C 9.980469 -11.496094 11.042969 -10.398438 12.394531 -10.398438 C 13.75 -10.398438 14.8125 -11.496094 14.8125 -12.816406 Z M 24.792969 -12.910156 C 24.792969 -19.320312 20.640625 -25.757812 12.429688 -25.757812 C 4.089844 -25.757812 0 -19.320312 0 -12.910156 C 0 -6.472656 4.089844 0 12.429688 0 C 20.640625 0 24.792969 -6.472656 24.792969 -12.910156 Z M 19.960938 -12.816406 C 19.960938 -8.660156 17.417969 -4.507812 12.429688 -4.507812 C 7.375 -4.507812 4.863281 -8.660156 4.863281 -12.816406 C 4.863281 -17.03125 7.375 -21.21875 12.429688 -21.21875 C 17.417969 -21.21875 19.960938 -17.03125 19.960938 -12.816406 Z M 19.960938 -12.816406 "/></g></g></g><g fill="#000000" fill-opacity="1"><g transform="translate(338.033468, 169.884014)"><g><path d="M 18.996094 -25.757812 L 14.8125 -25.757812 C 14.585938 -25.757812 14.457031 -25.597656 14.457031 -25.46875 L 14.457031 -8.597656 C 14.457031 -5.988281 12.074219 -4.734375 9.660156 -4.734375 C 7.277344 -4.734375 5.152344 -6.085938 4.863281 -8.628906 L 4.863281 -21.089844 L 0 -21.089844 L 0 -8.597656 C 0 -3.285156 4.347656 0 9.660156 0 C 15.132812 0 19.320312 -3.15625 19.320312 -8.597656 L 19.320312 -25.46875 C 19.320312 -25.597656 19.15625 -25.757812 18.996094 -25.757812 Z M 18.996094 -25.757812 "/></g></g></g><g fill="#000000" fill-opacity="1"><g transform="translate(358.317721, 169.884014)"><g><path d="M 15.035156 -15.261719 L 4.925781 -15.261719 L 4.925781 -21.089844 L 12.234375 -21.089844 L 12.234375 -25.757812 L 0.355469 -25.757812 C 0.160156 -25.757812 0 -25.597656 0 -25.46875 L 0 -0.289062 C 0 -0.160156 0.160156 0 0.355469 0 L 4.925781 0 L 4.925781 -10.59375 L 15.035156 -10.59375 C 15.230469 -10.59375 15.390625 -10.753906 15.390625 -10.882812 L 15.390625 -14.972656 C 15.390625 -15.132812 15.230469 -15.261719 15.035156 -15.261719 Z M 15.035156 -15.261719 "/></g></g></g></svg>