<svg xmlns="http://www.w3.org/2000/svg" xmlns:xlink="http://www.w3.org/1999/xlink" width="500" zoomAndPan="magnify" viewBox="0 0 375 374.999991" height="500" preserveAspectRatio="xMidYMid meet" version="1.0"><defs><clipPath id="0f3af14974"><path d="M 0 2 L 291 2 L 291 373.40625 L 0 373.40625 Z M 0 2 " clip-rule="nonzero"/></clipPath><clipPath id="93b1b3480c"><path d="M 222 231 L 375 231 L 375 373.40625 L 222 373.40625 Z M 222 231 " clip-rule="nonzero"/></clipPath></defs><g clip-path="url(#0f3af14974)"><path fill="#000000" d="M 158.238281 60.683594 C 166.128906 60.714844 174.03125 61.234375 181.65625 63.519531 C 211.410156 72.441406 228.808594 92.414062 231.925781 123.167969 C 234.753906 151.070312 224.578125 173.972656 200.609375 189.691406 C 186.597656 198.878906 170.730469 201.039062 154.351562 200.746094 C 147.929688 200.632812 147.996094 200.773438 147.3125 207.238281 C 144.496094 233.753906 141.59375 260.25 138.777344 286.765625 C 138.480469 289.527344 138.140625 292.160156 140.140625 294.84375 C 159.691406 320.972656 179.152344 347.164062 198.585938 373.367188 L 274.960938 373.367188 C 271.839844 369.148438 268.71875 364.929688 265.589844 360.710938 C 240.046875 326.234375 214.53125 291.734375 188.894531 257.320312 C 186.4375 254.03125 186.828125 253.320312 190.847656 252.488281 C 214.492188 247.578125 236.015625 237.992188 253.296875 220.796875 C 287.804688 186.449219 297.25 144.488281 286.617188 98.285156 C 273.253906 40.1875 227.023438 4.5625 168.671875 2.867188 C 117.832031 1.398438 66.929688 2.449219 16.050781 2.277344 C 12.742188 2.269531 11.640625 3.539062 11.375 6.621094 C 10.882812 12.429688 10.066406 18.203125 9.429688 24.007812 C 6.519531 50.351562 3.664062 76.707031 0.648438 103.03125 C 0.296875 106.085938 0.855469 108.425781 2.707031 110.890625 C 11.8125 123 20.738281 135.226562 29.746094 147.398438 C 36.578125 156.613281 43.453125 165.800781 50.308594 174.996094 C 50.792969 174.910156 51.277344 174.824219 51.753906 174.75 C 52.3125 168.996094 52.824219 163.222656 53.449219 157.476562 C 56.761719 127.046875 60.242188 96.644531 63.277344 66.183594 C 63.742188 61.492188 65.324219 60.5625 69.582031 60.582031 C 99.140625 60.722656 128.695312 60.589844 158.238281 60.683594 Z M 158.238281 60.683594 " fill-opacity="1" fill-rule="nonzero"/></g><g clip-path="url(#93b1b3480c)"><path fill="#000000" d="M 301.839844 373.367188 L 374.761719 373.367188 C 358.589844 349.875 341.191406 324.660156 325.523438 302.21875 C 325.523438 302.21875 325.515625 302.210938 325.515625 302.199219 C 308.660156 279.476562 291.785156 256.753906 275.054688 233.945312 C 272.929688 231.050781 271.6875 230.777344 269.042969 233.421875 C 256.425781 246.070312 241.726562 255.738281 225.277344 262.648438 C 221.789062 264.121094 221.492188 265.246094 223.761719 268.289062 C 249.855469 303.273438 275.863281 338.3125 301.839844 373.367188 Z M 301.839844 373.367188 " fill-opacity="1" fill-rule="nonzero"/></g><path fill="#000000" d="M 161.09375 180.714844 C 180.28125 180.117188 199.972656 172.277344 208.925781 149.921875 C 209.960938 147.332031 209.582031 145.296875 207.816406 142.992188 C 203.148438 136.878906 198.816406 130.507812 194.347656 124.230469 C 192.746094 121.167969 189.824219 118.949219 188.410156 115.871094 C 184.457031 107.183594 178.667969 99.960938 171.660156 93.621094 C 169.0625 90.261719 166.367188 86.992188 163.910156 83.542969 C 162.394531 81.398438 160.65625 80.574219 157.984375 80.585938 C 134.289062 80.6875 110.597656 80.6875 86.902344 80.585938 C 84.011719 80.574219 82.730469 81.21875 82.425781 84.386719 C 81.257812 96.3125 79.722656 108.199219 78.421875 120.117188 C 75.710938 145.050781 73.167969 170 70.246094 194.90625 C 69.800781 198.707031 70.523438 201.53125 72.722656 204.46875 C 83.878906 219.34375 94.910156 234.3125 105.996094 249.226562 C 110.550781 255.339844 115.140625 261.425781 120.585938 268.679688 C 124.984375 227.746094 129.226562 188.230469 133.464844 148.726562 C 135.894531 149.988281 137.191406 151.484375 138.378906 153.070312 C 144.496094 161.277344 150.585938 169.507812 156.683594 177.738281 C 157.8125 179.242188 158.714844 180.789062 161.09375 180.714844 Z M 161.09375 180.714844 " fill-opacity="1" fill-rule="nonzero"/></svg>